<mxfile host="app.diagrams.net" modified="2023-08-14T14:31:49.881Z" agent="Mozilla/5.0 (Windows NT 10.0; Win64; x64) AppleWebKit/537.36 (KHTML, like Gecko) Chrome/115.0.0.0 Safari/537.36" etag="TBG07R704D9GjtCWgXKW" version="21.6.8" type="device">
  <diagram id="R2lEEEUBdFMjLlhIrx00" name="Page-1">
    <mxGraphModel dx="1712" dy="397" grid="1" gridSize="10" guides="1" tooltips="1" connect="1" arrows="1" fold="1" page="1" pageScale="1" pageWidth="850" pageHeight="1100" math="0" shadow="0" extFonts="Permanent Marker^https://fonts.googleapis.com/css?family=Permanent+Marker">
      <root>
        <mxCell id="0" />
        <mxCell id="1" parent="0" />
        <mxCell id="rE1fdjt1m9qCx0aWdGFn-5" style="edgeStyle=orthogonalEdgeStyle;rounded=0;orthogonalLoop=1;jettySize=auto;html=1;entryX=0.5;entryY=1;entryDx=0;entryDy=0;exitX=0.5;exitY=0;exitDx=0;exitDy=0;endArrow=none;endFill=0;" parent="1" source="rE1fdjt1m9qCx0aWdGFn-1" target="rE1fdjt1m9qCx0aWdGFn-3" edge="1">
          <mxGeometry relative="1" as="geometry">
            <Array as="points">
              <mxPoint x="550" y="190" />
              <mxPoint x="550" y="160" />
              <mxPoint x="350" y="160" />
            </Array>
          </mxGeometry>
        </mxCell>
        <mxCell id="rE1fdjt1m9qCx0aWdGFn-7" style="edgeStyle=orthogonalEdgeStyle;rounded=0;orthogonalLoop=1;jettySize=auto;html=1;entryX=0.5;entryY=1;entryDx=0;entryDy=0;endArrow=none;endFill=0;" parent="1" source="rE1fdjt1m9qCx0aWdGFn-1" target="rE1fdjt1m9qCx0aWdGFn-6" edge="1">
          <mxGeometry relative="1" as="geometry">
            <Array as="points">
              <mxPoint x="550" y="160" />
              <mxPoint x="470" y="160" />
            </Array>
          </mxGeometry>
        </mxCell>
        <mxCell id="rE1fdjt1m9qCx0aWdGFn-21" style="edgeStyle=orthogonalEdgeStyle;rounded=0;orthogonalLoop=1;jettySize=auto;html=1;exitX=0.5;exitY=0;exitDx=0;exitDy=0;entryX=0.5;entryY=1;entryDx=0;entryDy=0;endArrow=none;endFill=0;" parent="1" source="rE1fdjt1m9qCx0aWdGFn-1" target="rE1fdjt1m9qCx0aWdGFn-10" edge="1">
          <mxGeometry relative="1" as="geometry">
            <Array as="points">
              <mxPoint x="550" y="190" />
              <mxPoint x="550" y="160" />
              <mxPoint x="600" y="160" />
            </Array>
          </mxGeometry>
        </mxCell>
        <mxCell id="rE1fdjt1m9qCx0aWdGFn-22" style="edgeStyle=orthogonalEdgeStyle;rounded=0;orthogonalLoop=1;jettySize=auto;html=1;exitX=0.5;exitY=0;exitDx=0;exitDy=0;entryX=0.5;entryY=1;entryDx=0;entryDy=0;endArrow=none;endFill=0;" parent="1" source="rE1fdjt1m9qCx0aWdGFn-1" target="rE1fdjt1m9qCx0aWdGFn-9" edge="1">
          <mxGeometry relative="1" as="geometry">
            <Array as="points">
              <mxPoint x="550" y="190" />
              <mxPoint x="550" y="160" />
              <mxPoint x="720" y="160" />
            </Array>
          </mxGeometry>
        </mxCell>
        <mxCell id="rE1fdjt1m9qCx0aWdGFn-1" value="Student" style="whiteSpace=wrap;html=1;align=center;" parent="1" vertex="1">
          <mxGeometry x="483" y="180" width="134" height="80" as="geometry" />
        </mxCell>
        <mxCell id="rE1fdjt1m9qCx0aWdGFn-3" value="RollNo" style="ellipse;whiteSpace=wrap;html=1;align=center;fontStyle=4" parent="1" vertex="1">
          <mxGeometry x="311" y="90" width="100" height="40" as="geometry" />
        </mxCell>
        <mxCell id="rE1fdjt1m9qCx0aWdGFn-6" value="RegistrationNo" style="ellipse;whiteSpace=wrap;align=center;fontStyle=4" parent="1" vertex="1">
          <mxGeometry x="431" y="90" width="100" height="40" as="geometry" />
        </mxCell>
        <mxCell id="rE1fdjt1m9qCx0aWdGFn-9" value="DeptID" style="ellipse;whiteSpace=wrap;align=center;" parent="1" vertex="1">
          <mxGeometry x="681" y="90" width="100" height="40" as="geometry" />
        </mxCell>
        <mxCell id="rE1fdjt1m9qCx0aWdGFn-10" value="Name" style="ellipse;whiteSpace=wrap;align=center;fontStyle=0" parent="1" vertex="1">
          <mxGeometry x="561" y="90" width="100" height="40" as="geometry" />
        </mxCell>
        <mxCell id="rE1fdjt1m9qCx0aWdGFn-25" value="Department" style="whiteSpace=wrap;html=1;align=center;" parent="1" vertex="1">
          <mxGeometry x="103" y="340" width="160" height="90" as="geometry" />
        </mxCell>
        <mxCell id="rE1fdjt1m9qCx0aWdGFn-36" style="edgeStyle=orthogonalEdgeStyle;rounded=0;orthogonalLoop=1;jettySize=auto;html=1;exitX=1;exitY=0.5;exitDx=0;exitDy=0;entryX=0;entryY=0.5;entryDx=0;entryDy=0;endArrow=none;endFill=0;" parent="1" source="rE1fdjt1m9qCx0aWdGFn-28" target="rE1fdjt1m9qCx0aWdGFn-25" edge="1">
          <mxGeometry relative="1" as="geometry" />
        </mxCell>
        <mxCell id="rE1fdjt1m9qCx0aWdGFn-28" value="DeptName" style="ellipse;whiteSpace=wrap;html=1;align=center;" parent="1" vertex="1">
          <mxGeometry x="-37" y="405" width="100" height="40" as="geometry" />
        </mxCell>
        <mxCell id="rE1fdjt1m9qCx0aWdGFn-34" style="edgeStyle=orthogonalEdgeStyle;rounded=0;orthogonalLoop=1;jettySize=auto;html=1;exitX=1;exitY=0.5;exitDx=0;exitDy=0;entryX=0;entryY=0.5;entryDx=0;entryDy=0;endArrow=none;endFill=0;" parent="1" source="rE1fdjt1m9qCx0aWdGFn-29" target="rE1fdjt1m9qCx0aWdGFn-25" edge="1">
          <mxGeometry relative="1" as="geometry" />
        </mxCell>
        <mxCell id="rE1fdjt1m9qCx0aWdGFn-29" value="DeptID" style="ellipse;whiteSpace=wrap;html=1;align=center;fontStyle=4;" parent="1" vertex="1">
          <mxGeometry x="-37" y="325" width="100" height="40" as="geometry" />
        </mxCell>
        <mxCell id="rE1fdjt1m9qCx0aWdGFn-37" value="Belongs to" style="shape=rhombus;perimeter=rhombusPerimeter;whiteSpace=wrap;html=1;align=center;" parent="1" vertex="1">
          <mxGeometry x="323" y="190" width="120" height="60" as="geometry" />
        </mxCell>
        <mxCell id="rE1fdjt1m9qCx0aWdGFn-47" style="edgeStyle=orthogonalEdgeStyle;rounded=0;orthogonalLoop=1;jettySize=auto;html=1;entryX=0;entryY=0.5;entryDx=0;entryDy=0;endArrow=none;endFill=0;" parent="1" source="rE1fdjt1m9qCx0aWdGFn-42" target="rE1fdjt1m9qCx0aWdGFn-43" edge="1">
          <mxGeometry relative="1" as="geometry" />
        </mxCell>
        <mxCell id="rE1fdjt1m9qCx0aWdGFn-48" style="edgeStyle=orthogonalEdgeStyle;rounded=0;orthogonalLoop=1;jettySize=auto;html=1;exitX=1;exitY=0.5;exitDx=0;exitDy=0;entryX=0;entryY=0.5;entryDx=0;entryDy=0;endArrow=none;endFill=0;" parent="1" source="rE1fdjt1m9qCx0aWdGFn-42" target="rE1fdjt1m9qCx0aWdGFn-44" edge="1">
          <mxGeometry relative="1" as="geometry" />
        </mxCell>
        <mxCell id="rE1fdjt1m9qCx0aWdGFn-50" style="edgeStyle=orthogonalEdgeStyle;rounded=0;orthogonalLoop=1;jettySize=auto;html=1;exitX=1;exitY=0.5;exitDx=0;exitDy=0;entryX=0;entryY=0.5;entryDx=0;entryDy=0;endArrow=none;endFill=0;" parent="1" source="rE1fdjt1m9qCx0aWdGFn-42" target="rE1fdjt1m9qCx0aWdGFn-45" edge="1">
          <mxGeometry relative="1" as="geometry" />
        </mxCell>
        <mxCell id="rE1fdjt1m9qCx0aWdGFn-51" style="edgeStyle=orthogonalEdgeStyle;rounded=0;orthogonalLoop=1;jettySize=auto;html=1;exitX=1;exitY=0.5;exitDx=0;exitDy=0;entryX=0;entryY=0.5;entryDx=0;entryDy=0;endArrow=none;endFill=0;" parent="1" source="rE1fdjt1m9qCx0aWdGFn-42" target="rE1fdjt1m9qCx0aWdGFn-46" edge="1">
          <mxGeometry relative="1" as="geometry" />
        </mxCell>
        <mxCell id="rE1fdjt1m9qCx0aWdGFn-67" style="edgeStyle=orthogonalEdgeStyle;rounded=0;orthogonalLoop=1;jettySize=auto;html=1;exitX=1;exitY=0.5;exitDx=0;exitDy=0;entryX=0.003;entryY=0.59;entryDx=0;entryDy=0;entryPerimeter=0;endArrow=none;endFill=0;" parent="1" source="rE1fdjt1m9qCx0aWdGFn-42" target="rE1fdjt1m9qCx0aWdGFn-66" edge="1">
          <mxGeometry relative="1" as="geometry" />
        </mxCell>
        <mxCell id="rE1fdjt1m9qCx0aWdGFn-42" value="Semester" style="whiteSpace=wrap;html=1;align=center;" parent="1" vertex="1">
          <mxGeometry x="730" y="340" width="145" height="90" as="geometry" />
        </mxCell>
        <mxCell id="rE1fdjt1m9qCx0aWdGFn-43" value="SemRegID" style="ellipse;whiteSpace=wrap;html=1;align=center;fontStyle=4" parent="1" vertex="1">
          <mxGeometry x="917" y="270" width="100" height="40" as="geometry" />
        </mxCell>
        <mxCell id="rE1fdjt1m9qCx0aWdGFn-44" value="RegistrationNo" style="ellipse;whiteSpace=wrap;html=1;align=center;fontStyle=4" parent="1" vertex="1">
          <mxGeometry x="917" y="320" width="100" height="40" as="geometry" />
        </mxCell>
        <mxCell id="rE1fdjt1m9qCx0aWdGFn-45" value="&lt;u&gt;CourseID&lt;/u&gt;" style="ellipse;whiteSpace=wrap;html=1;align=center;fontStyle=0" parent="1" vertex="1">
          <mxGeometry x="917" y="365" width="100" height="40" as="geometry" />
        </mxCell>
        <mxCell id="rE1fdjt1m9qCx0aWdGFn-46" value="SemesterNumber" style="ellipse;whiteSpace=wrap;html=1;align=center;fontStyle=0" parent="1" vertex="1">
          <mxGeometry x="917" y="410" width="100" height="40" as="geometry" />
        </mxCell>
        <mxCell id="rE1fdjt1m9qCx0aWdGFn-52" value="Registers for" style="shape=rhombus;perimeter=rhombusPerimeter;whiteSpace=wrap;html=1;align=center;" parent="1" vertex="1">
          <mxGeometry x="650" y="190" width="120" height="60" as="geometry" />
        </mxCell>
        <mxCell id="rE1fdjt1m9qCx0aWdGFn-62" style="edgeStyle=orthogonalEdgeStyle;rounded=0;orthogonalLoop=1;jettySize=auto;html=1;exitX=0.5;exitY=1;exitDx=0;exitDy=0;entryX=0.5;entryY=0;entryDx=0;entryDy=0;endArrow=none;endFill=0;" parent="1" source="rE1fdjt1m9qCx0aWdGFn-55" target="rE1fdjt1m9qCx0aWdGFn-57" edge="1">
          <mxGeometry relative="1" as="geometry">
            <mxPoint x="330" y="740" as="sourcePoint" />
          </mxGeometry>
        </mxCell>
        <mxCell id="rE1fdjt1m9qCx0aWdGFn-63" style="edgeStyle=orthogonalEdgeStyle;rounded=0;orthogonalLoop=1;jettySize=auto;html=1;exitX=0.5;exitY=1;exitDx=0;exitDy=0;entryX=0.5;entryY=0;entryDx=0;entryDy=0;endArrow=none;endFill=0;" parent="1" source="rE1fdjt1m9qCx0aWdGFn-55" target="rE1fdjt1m9qCx0aWdGFn-58" edge="1">
          <mxGeometry relative="1" as="geometry">
            <mxPoint x="330" y="740" as="sourcePoint" />
          </mxGeometry>
        </mxCell>
        <mxCell id="rE1fdjt1m9qCx0aWdGFn-64" style="edgeStyle=orthogonalEdgeStyle;rounded=0;orthogonalLoop=1;jettySize=auto;html=1;exitX=0.5;exitY=1;exitDx=0;exitDy=0;entryX=0.5;entryY=0;entryDx=0;entryDy=0;endArrow=none;endFill=0;" parent="1" source="rE1fdjt1m9qCx0aWdGFn-55" target="rE1fdjt1m9qCx0aWdGFn-56" edge="1">
          <mxGeometry relative="1" as="geometry">
            <mxPoint x="330" y="740" as="sourcePoint" />
          </mxGeometry>
        </mxCell>
        <mxCell id="rE1fdjt1m9qCx0aWdGFn-65" style="edgeStyle=orthogonalEdgeStyle;rounded=0;orthogonalLoop=1;jettySize=auto;html=1;exitX=0.5;exitY=1;exitDx=0;exitDy=0;endArrow=none;endFill=0;" parent="1" source="rE1fdjt1m9qCx0aWdGFn-55" target="rE1fdjt1m9qCx0aWdGFn-59" edge="1">
          <mxGeometry relative="1" as="geometry">
            <mxPoint x="330" y="740" as="sourcePoint" />
          </mxGeometry>
        </mxCell>
        <mxCell id="rE1fdjt1m9qCx0aWdGFn-55" value="Course" style="whiteSpace=wrap;html=1;align=center;" parent="1" vertex="1">
          <mxGeometry x="180" y="650" width="160" height="90" as="geometry" />
        </mxCell>
        <mxCell id="rE1fdjt1m9qCx0aWdGFn-56" value="DeptID" style="ellipse;whiteSpace=wrap;align=center;" parent="1" vertex="1">
          <mxGeometry x="280" y="790" width="100" height="40" as="geometry" />
        </mxCell>
        <mxCell id="rE1fdjt1m9qCx0aWdGFn-57" value="CourseID" style="ellipse;whiteSpace=wrap;align=center;fontStyle=4" parent="1" vertex="1">
          <mxGeometry x="20" y="790" width="100" height="40" as="geometry" />
        </mxCell>
        <mxCell id="rE1fdjt1m9qCx0aWdGFn-58" value="CourseName" style="ellipse;whiteSpace=wrap;align=center;" parent="1" vertex="1">
          <mxGeometry x="150" y="790" width="100" height="40" as="geometry" />
        </mxCell>
        <mxCell id="rE1fdjt1m9qCx0aWdGFn-59" value="FacultyID" style="ellipse;whiteSpace=wrap;align=center;" parent="1" vertex="1">
          <mxGeometry x="400" y="790" width="100" height="40" as="geometry" />
        </mxCell>
        <mxCell id="rE1fdjt1m9qCx0aWdGFn-66" value="Grade" style="ellipse;whiteSpace=wrap;html=1;align=center;fontStyle=0" parent="1" vertex="1">
          <mxGeometry x="917" y="456" width="100" height="40" as="geometry" />
        </mxCell>
        <mxCell id="rE1fdjt1m9qCx0aWdGFn-68" value="Offers" style="shape=rhombus;perimeter=rhombusPerimeter;whiteSpace=wrap;html=1;align=center;" parent="1" vertex="1">
          <mxGeometry x="123" y="510" width="120" height="60" as="geometry" />
        </mxCell>
        <mxCell id="rE1fdjt1m9qCx0aWdGFn-77" value="" style="edgeStyle=orthogonalEdgeStyle;rounded=0;orthogonalLoop=1;jettySize=auto;exitX=1;exitY=0.5;exitDx=0;exitDy=0;entryX=0;entryY=0.5;entryDx=0;entryDy=0;endArrow=none;endFill=0;" parent="1" source="rE1fdjt1m9qCx0aWdGFn-73" target="rE1fdjt1m9qCx0aWdGFn-74" edge="1">
          <mxGeometry relative="1" as="geometry" />
        </mxCell>
        <mxCell id="rE1fdjt1m9qCx0aWdGFn-78" value="" style="edgeStyle=orthogonalEdgeStyle;rounded=0;orthogonalLoop=1;jettySize=auto;exitX=1;exitY=0.5;exitDx=0;exitDy=0;entryX=0;entryY=0.5;entryDx=0;entryDy=0;endArrow=none;endFill=0;" parent="1" source="rE1fdjt1m9qCx0aWdGFn-73" target="rE1fdjt1m9qCx0aWdGFn-76" edge="1">
          <mxGeometry relative="1" as="geometry" />
        </mxCell>
        <mxCell id="rE1fdjt1m9qCx0aWdGFn-79" value="" style="edgeStyle=orthogonalEdgeStyle;rounded=0;orthogonalLoop=1;jettySize=auto;exitX=1;exitY=0.5;exitDx=0;exitDy=0;entryX=0;entryY=0.5;entryDx=0;entryDy=0;endArrow=none;endFill=0;" parent="1" source="rE1fdjt1m9qCx0aWdGFn-73" target="rE1fdjt1m9qCx0aWdGFn-75" edge="1">
          <mxGeometry relative="1" as="geometry" />
        </mxCell>
        <mxCell id="rE1fdjt1m9qCx0aWdGFn-73" value="Faculty" style="whiteSpace=wrap;html=1;align=center;" parent="1" vertex="1">
          <mxGeometry x="717" y="650" width="163" height="90" as="geometry" />
        </mxCell>
        <mxCell id="rE1fdjt1m9qCx0aWdGFn-74" value="FacultyID" style="ellipse;whiteSpace=wrap;html=1;align=center;fontStyle=4" parent="1" vertex="1">
          <mxGeometry x="940" y="623" width="100" height="40" as="geometry" />
        </mxCell>
        <mxCell id="rE1fdjt1m9qCx0aWdGFn-75" value="FacultyName" style="ellipse;whiteSpace=wrap;html=1;align=center;" parent="1" vertex="1">
          <mxGeometry x="940" y="675" width="100" height="40" as="geometry" />
        </mxCell>
        <mxCell id="rE1fdjt1m9qCx0aWdGFn-76" value="DeptID" style="ellipse;whiteSpace=wrap;html=1;align=center;" parent="1" vertex="1">
          <mxGeometry x="940" y="733" width="100" height="40" as="geometry" />
        </mxCell>
        <mxCell id="rE1fdjt1m9qCx0aWdGFn-80" value="Teaches" style="shape=rhombus;perimeter=rhombusPerimeter;whiteSpace=wrap;html=1;align=center;" parent="1" vertex="1">
          <mxGeometry x="482" y="665" width="120" height="60" as="geometry" />
        </mxCell>
        <mxCell id="rE1fdjt1m9qCx0aWdGFn-85" value="" style="edgeStyle=entityRelationEdgeStyle;fontSize=12;html=1;endArrow=ERmandOne;rounded=0;entryX=0;entryY=0.5;entryDx=0;entryDy=0;exitX=1;exitY=0.5;exitDx=0;exitDy=0;" parent="1" source="rE1fdjt1m9qCx0aWdGFn-37" target="rE1fdjt1m9qCx0aWdGFn-1" edge="1">
          <mxGeometry width="100" height="100" relative="1" as="geometry">
            <mxPoint x="570" y="400" as="sourcePoint" />
            <mxPoint x="490" y="380" as="targetPoint" />
          </mxGeometry>
        </mxCell>
        <mxCell id="rE1fdjt1m9qCx0aWdGFn-88" value="" style="edgeStyle=entityRelationEdgeStyle;fontSize=12;html=1;endArrow=ERmandOne;rounded=0;entryX=1;entryY=0.5;entryDx=0;entryDy=0;exitX=0;exitY=0.5;exitDx=0;exitDy=0;" parent="1" source="rE1fdjt1m9qCx0aWdGFn-37" target="rE1fdjt1m9qCx0aWdGFn-25" edge="1">
          <mxGeometry width="100" height="100" relative="1" as="geometry">
            <mxPoint x="313" y="400" as="sourcePoint" />
            <mxPoint x="323" y="270" as="targetPoint" />
            <Array as="points">
              <mxPoint x="213" y="290" />
              <mxPoint x="213" y="30" />
            </Array>
          </mxGeometry>
        </mxCell>
        <mxCell id="rE1fdjt1m9qCx0aWdGFn-90" value="" style="fontSize=12;html=1;endArrow=ERzeroToOne;endFill=1;rounded=0;entryX=1;entryY=0.5;entryDx=0;entryDy=0;exitX=0;exitY=0.5;exitDx=0;exitDy=0;" parent="1" source="rE1fdjt1m9qCx0aWdGFn-52" target="rE1fdjt1m9qCx0aWdGFn-1" edge="1">
          <mxGeometry width="100" height="100" relative="1" as="geometry">
            <mxPoint x="610" y="420" as="sourcePoint" />
            <mxPoint x="710" y="320" as="targetPoint" />
          </mxGeometry>
        </mxCell>
        <mxCell id="rE1fdjt1m9qCx0aWdGFn-91" value="" style="edgeStyle=elbowEdgeStyle;fontSize=12;html=1;endArrow=ERmany;rounded=0;exitX=1;exitY=0.5;exitDx=0;exitDy=0;elbow=vertical;entryX=0.5;entryY=0;entryDx=0;entryDy=0;" parent="1" source="rE1fdjt1m9qCx0aWdGFn-52" target="rE1fdjt1m9qCx0aWdGFn-42" edge="1">
          <mxGeometry width="100" height="100" relative="1" as="geometry">
            <mxPoint x="690" y="340" as="sourcePoint" />
            <mxPoint x="830" y="240" as="targetPoint" />
            <Array as="points">
              <mxPoint x="790" y="220" />
            </Array>
          </mxGeometry>
        </mxCell>
        <mxCell id="rE1fdjt1m9qCx0aWdGFn-92" value="" style="edgeStyle=elbowEdgeStyle;fontSize=12;html=1;endArrow=ERoneToMany;rounded=0;exitX=0.5;exitY=1;exitDx=0;exitDy=0;entryX=0.5;entryY=0;entryDx=0;entryDy=0;elbow=vertical;" parent="1" source="rE1fdjt1m9qCx0aWdGFn-68" target="rE1fdjt1m9qCx0aWdGFn-55" edge="1">
          <mxGeometry width="100" height="100" relative="1" as="geometry">
            <mxPoint x="350" y="600" as="sourcePoint" />
            <mxPoint x="450" y="500" as="targetPoint" />
          </mxGeometry>
        </mxCell>
        <mxCell id="rE1fdjt1m9qCx0aWdGFn-93" value="" style="fontSize=12;html=1;endArrow=ERmandOne;rounded=0;entryX=0.5;entryY=1;entryDx=0;entryDy=0;exitX=0.5;exitY=0;exitDx=0;exitDy=0;" parent="1" source="rE1fdjt1m9qCx0aWdGFn-68" target="rE1fdjt1m9qCx0aWdGFn-25" edge="1">
          <mxGeometry width="100" height="100" relative="1" as="geometry">
            <mxPoint x="350" y="600" as="sourcePoint" />
            <mxPoint x="450" y="500" as="targetPoint" />
          </mxGeometry>
        </mxCell>
        <mxCell id="rE1fdjt1m9qCx0aWdGFn-94" value="" style="edgeStyle=entityRelationEdgeStyle;fontSize=12;html=1;endArrow=ERoneToMany;rounded=0;exitX=0;exitY=0.5;exitDx=0;exitDy=0;entryX=1;entryY=0.5;entryDx=0;entryDy=0;" parent="1" source="rE1fdjt1m9qCx0aWdGFn-80" target="rE1fdjt1m9qCx0aWdGFn-55" edge="1">
          <mxGeometry width="100" height="100" relative="1" as="geometry">
            <mxPoint x="252" y="680" as="sourcePoint" />
            <mxPoint x="352" y="780" as="targetPoint" />
          </mxGeometry>
        </mxCell>
        <mxCell id="rE1fdjt1m9qCx0aWdGFn-96" value="" style="edgeStyle=entityRelationEdgeStyle;fontSize=12;html=1;endArrow=ERoneToMany;rounded=0;entryX=0;entryY=0.5;entryDx=0;entryDy=0;exitX=1;exitY=0.5;exitDx=0;exitDy=0;" parent="1" source="rE1fdjt1m9qCx0aWdGFn-80" target="rE1fdjt1m9qCx0aWdGFn-73" edge="1">
          <mxGeometry width="100" height="100" relative="1" as="geometry">
            <mxPoint x="470" y="780" as="sourcePoint" />
            <mxPoint x="570" y="680" as="targetPoint" />
          </mxGeometry>
        </mxCell>
        <mxCell id="rE1fdjt1m9qCx0aWdGFn-97" value="Hosts" style="shape=rhombus;perimeter=rhombusPerimeter;whiteSpace=wrap;html=1;align=center;" parent="1" vertex="1">
          <mxGeometry x="410" y="500" width="120" height="60" as="geometry" />
        </mxCell>
        <mxCell id="rE1fdjt1m9qCx0aWdGFn-98" value="" style="edgeStyle=entityRelationEdgeStyle;fontSize=12;html=1;endArrow=ERone;endFill=1;rounded=0;entryX=1;entryY=0.75;entryDx=0;entryDy=0;exitX=0;exitY=0.5;exitDx=0;exitDy=0;" parent="1" source="rE1fdjt1m9qCx0aWdGFn-97" target="rE1fdjt1m9qCx0aWdGFn-25" edge="1">
          <mxGeometry width="100" height="100" relative="1" as="geometry">
            <mxPoint x="390" y="530" as="sourcePoint" />
            <mxPoint x="490" y="430" as="targetPoint" />
          </mxGeometry>
        </mxCell>
        <mxCell id="rE1fdjt1m9qCx0aWdGFn-99" value="" style="edgeStyle=entityRelationEdgeStyle;fontSize=12;html=1;endArrow=ERoneToMany;rounded=0;entryX=0;entryY=0.25;entryDx=0;entryDy=0;exitX=1;exitY=0.5;exitDx=0;exitDy=0;" parent="1" source="rE1fdjt1m9qCx0aWdGFn-97" target="rE1fdjt1m9qCx0aWdGFn-73" edge="1">
          <mxGeometry width="100" height="100" relative="1" as="geometry">
            <mxPoint x="390" y="530" as="sourcePoint" />
            <mxPoint x="490" y="430" as="targetPoint" />
          </mxGeometry>
        </mxCell>
        <mxCell id="rE1fdjt1m9qCx0aWdGFn-100" value="Provides" style="shape=rhombus;perimeter=rhombusPerimeter;whiteSpace=wrap;html=1;align=center;" parent="1" vertex="1">
          <mxGeometry x="742.5" y="550" width="120" height="60" as="geometry" />
        </mxCell>
        <mxCell id="rE1fdjt1m9qCx0aWdGFn-102" value="" style="edgeStyle=elbowEdgeStyle;fontSize=12;html=1;endArrow=ERoneToMany;rounded=0;entryX=1;entryY=0.25;entryDx=0;entryDy=0;exitX=0;exitY=0.5;exitDx=0;exitDy=0;" parent="1" source="rE1fdjt1m9qCx0aWdGFn-100" target="rE1fdjt1m9qCx0aWdGFn-55" edge="1">
          <mxGeometry width="100" height="100" relative="1" as="geometry">
            <mxPoint x="550" y="730" as="sourcePoint" />
            <mxPoint x="650" y="630" as="targetPoint" />
            <Array as="points">
              <mxPoint x="420" y="630" />
            </Array>
          </mxGeometry>
        </mxCell>
        <mxCell id="rE1fdjt1m9qCx0aWdGFn-103" value="" style="fontSize=12;html=1;endArrow=ERoneToMany;rounded=0;entryX=0.5;entryY=1;entryDx=0;entryDy=0;exitX=0.5;exitY=0;exitDx=0;exitDy=0;" parent="1" source="rE1fdjt1m9qCx0aWdGFn-100" target="rE1fdjt1m9qCx0aWdGFn-42" edge="1">
          <mxGeometry width="100" height="100" relative="1" as="geometry">
            <mxPoint x="982.5" y="730" as="sourcePoint" />
            <mxPoint x="882.5" y="630" as="targetPoint" />
          </mxGeometry>
        </mxCell>
        <mxCell id="K6OLQXwFYMYIuxpGqTVy-2" value="Semester" style="ellipse;whiteSpace=wrap;align=center;" vertex="1" parent="1">
          <mxGeometry x="800" y="90" width="100" height="40" as="geometry" />
        </mxCell>
        <mxCell id="K6OLQXwFYMYIuxpGqTVy-7" value="" style="endArrow=none;html=1;rounded=0;edgeStyle=orthogonalEdgeStyle;exitX=0.5;exitY=0;exitDx=0;exitDy=0;" edge="1" parent="1" source="rE1fdjt1m9qCx0aWdGFn-1">
          <mxGeometry width="50" height="50" relative="1" as="geometry">
            <mxPoint x="800" y="179.47" as="sourcePoint" />
            <mxPoint x="851" y="130" as="targetPoint" />
            <Array as="points">
              <mxPoint x="550" y="160" />
              <mxPoint x="851" y="160" />
              <mxPoint x="851" y="130" />
            </Array>
          </mxGeometry>
        </mxCell>
      </root>
    </mxGraphModel>
  </diagram>
</mxfile>
